<?xml version="1.0" encoding="UTF-8" standalone="no" ?>
<!DOCTYPE svg PUBLIC "-//W3C//DTD SVG 1.1//EN" "http://www.w3.org/Graphics/SVG/1.1/DTD/svg11.dtd">
<svg xmlns="http://www.w3.org/2000/svg" xmlns:xlink="http://www.w3.org/1999/xlink" version="1.1" width="1080" height="1080" viewBox="0 0 1080 1080" xml:space="preserve">
<desc>Created with Fabric.js 5.2.4</desc>
<defs>
</defs>
<g transform="matrix(1 0 0 1 540 540)" id="e84161b0-23af-4c2c-84b2-4edbfabd9afb"  >
<rect style="stroke: none; stroke-width: 1; stroke-dasharray: none; stroke-linecap: butt; stroke-dashoffset: 0; stroke-linejoin: miter; stroke-miterlimit: 4; fill: rgb(255,255,255); fill-rule: nonzero; opacity: 1; visibility: hidden;" vector-effect="non-scaling-stroke"  x="-540" y="-540" rx="0" ry="0" width="1080" height="1080" />
</g>
<g transform="matrix(1 0 0 1 540 540)" id="dea17ddc-4122-4fd6-a85b-d8b6e98c236a"  >
</g>
<g transform="matrix(1 0 0 1 540 514.49)" id="950acaad-5b15-4da2-8efc-82a11acb2312"  >
<path style="stroke: rgb(0,0,0); stroke-opacity: 0; stroke-width: 0; stroke-dasharray: none; stroke-linecap: butt; stroke-dashoffset: 0; stroke-linejoin: miter; stroke-miterlimit: 4; fill: rgb(255,196,97); fill-rule: nonzero; opacity: 1;" vector-effect="non-scaling-stroke"  transform=" translate(-128, -106.5)" d="M 228.849 40 L 163 40 L 163 16.275 C 163 7.513 155.222 2 145.649 2 C 145.649 2 109.152 2 109.351 2 C 99.978 2 92 7.513 92 16.275 L 92 41 L 27.164 41 C 14.138 41 2 52.056 2 66.666 C 2 67.06099999999999 2 184.235 2 184.235 C 2 200.523 14.171 211 27 211 L 228.947 211 C 241.719 211 254 201.411 254 184.93 C 254 184.93 254 66.46900000000001 254 65.96900000000001 C 253.902 51.187 241.818 40 228.849 40 z M 105 16 L 150 16 L 150 41 L 105 41 L 105 16 z M 128 176.087 C 99.836 176.087 77 153.25099999999998 77 125.08699999999999 C 77 96.92299999999999 99.836 74.08699999999999 128 74.08699999999999 C 156.173 74.08699999999999 179 96.92299999999999 179 125.08699999999999 C 179 153.252 156.173 176.087 128 176.087 z M 160.57 116.176 L 144.30599999999998 132.056 L 148.15499999999997 154.45800000000003 L 128 143.891 L 107.878 154.483 L 111.728 132.089 L 95.431 116.209 L 117.94 112.94800000000001 L 128 92.548 L 138.061 112.923 L 160.57 116.176 z" stroke-linecap="round" />
</g>
<g transform="matrix(NaN NaN NaN NaN 0 0)"  >
<g style=""   >
</g>
</g>
</svg>