<?xml version="1.0"?>
<svg xmlns="http://www.w3.org/2000/svg" width="1343" height="897">
 <path style="fill:#000" d="M 638,878.39503 C 588.73474,874.13555 551.29278,864.2321 514,845.59687 C 458.79434,818.01055 418.72718,778.71495 386.4469,720.5 C 366.00252,683.63016 359.62616,675.99467 344.10528,669.79724 C 338.69597,667.63731 336.97918,667.53822 295,666.96283 C 247.56601,666.31268 247.42382,666.29613 235,659.97819 C 212.17426,648.37053 187.12612,620.74691 165.14177,582.93705 C 158.94742,572.28367 157.67387,567.72286 160.58179,566.60699 C 163.3026,565.56292 312.70279,565.94944 327.5,567.03884 C 371.16156,570.25328 402.6162,580.29237 428.18972,599.17508 C 448.37263,614.07752 461.83199,631.99987 482.50443,671.5 C 496.62243,698.47614 505.90993,710.88431 522.27237,724.63026 C 551.13866,748.88059 589.18736,765.9445 631.5,773.61618 C 647.02402,776.43084 682.38217,776.20626 698.5,773.19063 C 745.9121,764.31987 787.71387,743.40665 816.12314,714.34435 C 827.5949,702.6089 833.09761,694.34953 847.97168,666.54085 C 865.33887,634.07101 876.714,618.16877 891.66353,605.46037 C 918.78245,582.40693 952.25397,570.59079 1000.5,567.03884 C 1021.2398,565.51194 1166.2516,565.65163 1167.8,567.2 C 1169.8821,569.28208 1169.1518,571.66606 1163.354,581.71462 C 1141.0541,620.3639 1114.9829,649.02622 1091.7112,660.47749 C 1079.5234,666.47479 1075.1006,666.96315 1032.7992,666.98264 C 993.01905,667.00096 988.39626,667.40517 979.30779,671.65987 C 967.76785,677.06221 959.59883,687.50807 941.50419,720 C 923.56066,752.22057 908.52834,772.45083 886.86477,793.53284 C 871.34544,808.63556 862.23262,816.03046 844.79605,827.6709 C 806.24004,853.41041 759.56836,870.16943 708.58985,876.58027 C 697.11578,878.0232 648.23413,879.27988 638,878.39503 z M 539.85247,662.98449 C 532.50761,659.10393 524.27862,646.35412 518.35528,629.67724 C 499.12257,575.52846 444.40569,533.05965 376.47386,519.55518 C 352.14521,514.71878 352.74586,514.742 235.5,514.10401 L 124.5,513.5 L 118.50672,511.24018 C 103.83666,505.7087 85.154834,490.82263 70.732611,473.17277 C 56.956314,456.31339 38.894714,426.32271 40.304724,422.64829 C 40.91648,421.05407 52.156281,420.96641 219.22874,421.25279 C 395.95441,421.55572 397.61271,421.57693 410.5,423.69885 C 478.83893,434.951 526.94466,466.36748 551.49787,515.78053 C 563.00045,538.92935 566.89243,557.9462 567.71758,595.03261 C 568.55793,632.80193 566.14107,650.56635 558.98553,659.21517 C 554.21386,664.98264 546.50784,666.50076 539.85247,662.98449 z M 774.5,663.58836 C 763.5465,658.72004 760.00449,644.14063 760.02322,604 C 760.03516,578.42685 760.90586,565.94514 763.61575,552.5 C 769.9271,521.18633 787.33431,490.95546 810.9856,470.23346 C 838.75433,445.90397 872.72602,431.05519 917.4321,423.70646 C 930.40041,421.57474 931.85748,421.55604 1108.6329,421.25286 C 1277.601,420.96306 1286.8004,421.03748 1287.4381,422.69938 C 1288.3385,425.04578 1282.5998,436.19549 1272.6703,451.39147 C 1251.9421,483.11384 1232.0502,501.99605 1210,510.88091 L 1203.5,513.5 L 1092.5,514.10459 C 973.40582,514.75327 975.08469,514.68292 948.5,520.13855 C 935.32038,522.84322 911.91806,530.59991 899.75833,536.29396 C 856.79442,556.41269 823.66958,590.43808 809.99271,628.5 C 805.82241,640.1057 799.87101,651.62242 795.26045,657.00882 C 789.24694,664.03426 781.22411,666.57691 774.5,663.58836 z M 705.66511,415.00795 C 696.64525,413.87419 696,413.55525 696,410.23065 C 696,407.84506 696.7442,407.03697 700.72012,405.10532 C 714.02969,398.63903 731.08701,385.2743 741.98032,372.77718 C 755.07367,357.7561 763.45362,341.60152 768.28714,322.06377 C 770.38614,313.57935 770.4088,312.2005 770.73273,173.25 L 771.05969,33 L 816.02985,33 L 861,33 L 861,171.53941 C 861,263.49548 860.63938,313.31287 859.92752,319.69691 C 858.39842,333.41002 854.80226,346.57502 849.566,357.62887 C 834.85683,388.68023 809.93915,406.07422 770.02028,413.15638 C 757.10937,415.44696 718.08921,416.56961 705.66511,415.00795 z M 557,387.37223 C 527.73747,385.87172 499.61709,380.24479 479.25,371.81433 L 472,368.81336 L 472,339.90668 C 472,324.00801 472.23007,311 472.51126,311 C 472.79245,311 478.30495,312.60791 484.76126,314.57314 C 509.14421,321.99503 537.40158,327.82886 557,329.48707 C 566.55436,330.29545 587.79,328.4834 597.31711,326.04678 C 613.18106,321.98946 622.53716,314.83981 625.55148,304.47091 C 629.00596,292.58792 625.93379,281.97727 616.22879,272.27227 C 605.33021,261.37369 588.84782,252.68957 553,238.95874 C 521.49804,226.89251 508.74435,220.17332 492.69101,207.18537 C 478.85681,195.99281 466.6145,176.98673 461.97563,159.5 C 458.74198,147.31041 458.15409,123.63123 460.7714,110.99535 C 470.15404,65.697649 506.17389,37.927377 567.15404,28.977392 C 608.61179,22.892686 652.01326,26.981651 685.75,40.150625 L 696,44.151662 L 696,73.575831 C 696,89.759124 695.8526,103 695.67245,103 C 695.49229,103 691.2653,101.23059 686.27914,99.067968 C 672.30983,93.009147 651.07714,86.232269 637.1286,83.380497 C 625.7984,81.064043 622.90638,80.848859 609,81.287558 C 584.82491,82.0502 570.94356,86.893048 560.45264,98.224496 C 547.97573,111.70105 549.30559,128.79272 563.87303,142.18402 C 575.18326,152.58108 589.18992,159.3566 623.40129,170.97995 C 656.43406,182.20287 678.08413,194.30232 695.01085,211 C 712.85448,228.60217 721,247.37149 721,270.88548 C 721,337.62794 679.36416,377.87476 602,385.91553 C 590.98069,387.06081 566.42719,387.85564 557,387.37223 z " />
</svg>